<?xml version="1.0" encoding="utf-8"?>
<!-- Generator: Adobe Illustrator 16.0.0, SVG Export Plug-In . SVG Version: 6.00 Build 0)  -->
<!DOCTYPE svg PUBLIC "-//W3C//DTD SVG 1.1//EN" "http://www.w3.org/Graphics/SVG/1.1/DTD/svg11.dtd">
<svg version="1.1" id="Layer_1" xmlns="http://www.w3.org/2000/svg" xmlns:xlink="http://www.w3.org/1999/xlink" x="0px" y="0px"
	 width="330.277px" height="308.875px" viewBox="0 0 330.277 308.875" enable-background="new 0 0 330.277 308.875"
	 xml:space="preserve">
<g>
	<defs>
		<rect id="SVGID_1_" width="330.277" height="308.875"/>
	</defs>
	<clipPath id="SVGID_2_">
		<use xlink:href="#SVGID_1_"  overflow="visible"/>
	</clipPath>
	<path clip-path="url(#SVGID_2_)" fill="#858483" d="M307.696,141.016c-9.781-2.814-19.746-1.994-28.265,2.227
		c0.014-1.166,0.025-2.333,0.025-3.513v-14.708c0-4.065-3.289-7.354-7.354-7.354H14.708c-4.064,0-7.354,3.289-7.354,7.354v14.708
		c0,96.222,43.234,147.083,125.02,147.083h22.063c39.859,0,70.557-12.086,91.561-35.61c45.952-10.069,76.877-33.725,82.934-63.605
		C333.708,163.982,325.571,146.136,307.696,141.016 M314.511,184.681c-4.157,20.525-24.308,37.686-55.13,47.707
		c10.37-18.379,16.781-41.309,19.093-68.625c0.883-2.467,3.337-5.055,6.57-6.861c3.124-1.744,9.717-4.28,18.601-1.752
		C318.016,159.271,316.034,177.176,314.511,184.681"/>
	<path clip-path="url(#SVGID_2_)" fill="#858483" d="M279.457,308.875H7.354c-4.064,0-7.354-3.289-7.354-7.354
		c0-4.065,3.29-7.354,7.354-7.354h272.104c4.064,0,7.354,3.289,7.354,7.354C286.811,305.586,283.521,308.875,279.457,308.875"/>
	<path clip-path="url(#SVGID_2_)" fill="#858483" d="M92.81,102.959c-1.609,0-3.225-0.524-4.582-1.609
		c-3.174-2.535-3.691-7.16-1.156-10.334c13.53-16.942,8.618-23.578,1.178-33.625c-8.496-11.484-20.131-27.198,6.607-55.12
		c2.829-2.938,7.476-3.038,10.399-0.23c2.937,2.815,3.038,7.469,0.23,10.399c-18.163,18.967-13.365,25.452-5.415,36.196
		c8.051,10.881,19.082,25.783-1.508,51.558C97.112,102.012,94.972,102.959,92.81,102.959"/>
	<path clip-path="url(#SVGID_2_)" fill="#858483" d="M140.612,102.959c-1.609,0-3.225-0.524-4.582-1.609
		c-3.174-2.535-3.691-7.16-1.156-10.334c13.53-16.942,8.618-23.578,1.178-33.625c-8.496-11.484-20.131-27.198,6.607-55.12
		c2.829-2.938,7.483-3.038,10.399-0.23c2.937,2.815,3.038,7.469,0.23,10.399c-18.163,18.967-13.365,25.452-5.415,36.196
		c8.051,10.881,19.083,25.783-1.508,51.558C144.914,102.012,142.773,102.959,140.612,102.959"/>
	<path clip-path="url(#SVGID_2_)" fill="#858483" d="M188.413,102.959c-1.608,0-3.225-0.524-4.582-1.609
		c-3.174-2.535-3.69-7.16-1.155-10.334c13.529-16.942,8.618-23.578,1.178-33.625c-8.496-11.484-20.131-27.198,6.607-55.12
		c2.828-2.938,7.476-3.038,10.398-0.23c2.938,2.815,3.038,7.469,0.23,10.399c-18.163,18.967-13.365,25.452-5.415,36.196
		c8.051,10.881,19.082,25.783-1.509,51.558C192.716,102.012,190.575,102.959,188.413,102.959"/>
	<path clip-path="url(#SVGID_2_)" fill="#FF8C00" d="M154.437,272.104h-22.062c-73.197,0-110.312-44.534-110.312-132.374v-7.354
		h242.687v7.354c0,7.626-0.287,14.918-0.846,21.89c-0.005,0.061-0.011,0.119-0.015,0.179
		C257.967,235.02,221.225,272.104,154.437,272.104"/>
</g>
</svg>
