<?xml version="1.0" encoding="utf-8"?>
<!-- Generator: Adobe Illustrator 16.0.0, SVG Export Plug-In . SVG Version: 6.00 Build 0)  -->
<!DOCTYPE svg PUBLIC "-//W3C//DTD SVG 1.1//EN" "http://www.w3.org/Graphics/SVG/1.1/DTD/svg11.dtd">
<svg version="1.1" id="Layer_1" xmlns="http://www.w3.org/2000/svg" xmlns:xlink="http://www.w3.org/1999/xlink" x="0px" y="0px"
	 width="415px" height="324.561px" viewBox="0 0 415 324.561" enable-background="new 0 0 415 324.561" xml:space="preserve">
<g>
	<defs>
		<rect id="SVGID_1_" width="415" height="324.561"/>
	</defs>
	<clipPath id="SVGID_2_">
		<use xlink:href="#SVGID_1_"  overflow="visible"/>
	</clipPath>
	<path clip-path="url(#SVGID_2_)" fill="#5B76A5" d="M386.744,120.032c-5.91,0-11.626-2.156-16.093-6.072
		C325.427,74.329,267.485,52.501,207.5,52.501c-59.988,0-117.93,21.826-163.152,61.457c-4.468,3.915-10.183,6.072-16.092,6.072
		h-0.002c-6.45-0.001-12.511-2.511-17.067-7.068c-4.763-4.762-7.355-11.319-7.139-18.013c0.215-6.685,3.081-12.781,8.07-17.165
		C66.231,30.226,135.62,4.035,207.5,4.035c71.879,0,141.268,26.192,195.383,73.751c4.989,4.384,7.854,10.48,8.07,17.165
		c0.216,6.696-2.378,13.252-7.114,17.988C399.255,117.523,393.193,120.032,386.744,120.032"/>
	<path clip-path="url(#SVGID_2_)" fill="#858483" d="M207.499,8.069c73.776,0,141.229,27.495,192.72,72.747
		c8.685,7.632,8.943,21.095,0.768,29.27l-0.027,0.027c-3.919,3.92-9.056,5.885-14.214,5.885c-4.777,0-9.574-1.687-13.436-5.071
		c-44.34-38.858-102.361-62.46-165.811-62.46c-63.45,0-121.471,23.601-165.811,62.458c-3.861,3.384-8.656,5.071-13.434,5.071
		c-5.158,0-10.295-1.966-14.214-5.886l-0.027-0.026c-8.175-8.175-7.916-21.637,0.768-29.27
		C66.271,35.563,133.724,8.069,207.499,8.069 M207.499,0C134.639,0,64.305,26.548,9.454,74.753
		c-5.835,5.129-9.188,12.255-9.439,20.066c-0.252,7.805,2.771,15.449,8.293,20.971c5.345,5.345,12.419,8.275,19.946,8.275
		c6.889,0,13.549-2.512,18.753-7.072c44.487-38.986,101.484-60.457,160.492-60.457c59.008,0,116.005,21.472,160.493,60.459
		c5.203,4.561,11.863,7.072,18.753,7.072c7.526,0,14.601-2.929,19.92-8.248c5.549-5.549,8.572-13.193,8.32-20.998
		c-0.251-7.811-3.604-14.937-9.439-20.066C350.695,26.549,280.361,0,207.499,0"/>
	<path clip-path="url(#SVGID_2_)" fill="#5B76A5" d="M81.833,173.552c-6.486,0-12.588-2.528-17.178-7.122
		c-4.815-4.814-7.398-11.468-7.093-18.263c0.303-6.752,3.444-13.102,8.617-17.422c39.64-33.1,89.828-51.33,141.32-51.33
		c51.495,0,101.686,18.229,141.325,51.328c5.172,4.319,8.313,10.67,8.615,17.422c0.306,6.795-2.275,13.449-7.084,18.257
		c-4.601,4.602-10.702,7.129-17.188,7.129c-5.595,0-11.027-1.967-15.299-5.536c-30.959-25.879-70.157-40.132-110.37-40.132
		c-40.21,0-79.406,14.252-110.365,40.132C92.862,171.585,87.428,173.552,81.833,173.552L81.833,173.552z"/>
	<path clip-path="url(#SVGID_2_)" fill="#858483" d="M207.499,83.45c52.749,0,101.107,18.969,138.739,50.391
		c9.08,7.582,9.63,21.363,1.265,29.728l-0.008,0.008c-3.927,3.928-9.125,5.94-14.327,5.94c-4.508,0-9.021-1.511-12.712-4.598
		c-30.631-25.605-70.002-41.071-112.957-41.071c-42.953,0-82.322,15.466-112.953,41.072c-3.693,3.087-8.204,4.598-12.712,4.598
		c-5.202,0-10.4-2.014-14.327-5.941L67.5,163.57c-8.365-8.365-7.816-22.146,1.264-29.728
		C106.396,102.419,154.753,83.45,207.499,83.45 M207.499,75.381c-26.744,0-52.933,4.682-77.84,13.916
		c-24.032,8.909-46.26,21.812-66.067,38.351c-6.04,5.044-9.706,12.457-10.06,20.339c-0.355,7.923,2.656,15.683,8.262,21.289
		c5.362,5.362,12.476,8.312,20.04,8.312c6.539,0,12.891-2.3,17.887-6.478c14.841-12.406,31.492-22.083,49.489-28.763
		c18.645-6.921,38.256-10.43,58.289-10.43c20.034,0,39.646,3.509,58.292,10.43c17.997,6.679,34.647,16.357,49.49,28.763
		c4.996,4.176,11.348,6.477,17.887,6.477c7.563,0,14.678-2.949,20.033-8.304c5.613-5.613,8.625-13.374,8.27-21.297
		c-0.354-7.882-4.021-15.295-10.061-20.338c-19.807-16.539-42.035-29.442-66.067-38.351
		C260.435,80.063,234.245,75.381,207.499,75.381"/>
	<path clip-path="url(#SVGID_2_)" fill="#425D99" d="M135.13,226.925c-6.437,0-12.476-2.496-17.007-7.027
		c-4.97-4.969-7.524-11.838-7.006-18.843c0.525-7.101,4.125-13.619,9.877-17.882c25.24-18.706,55.153-28.594,86.505-28.594
		c31.355,0,61.27,9.888,86.507,28.593c5.753,4.262,9.354,10.78,9.879,17.879c0.519,7.007-2.034,13.876-7.005,18.846
		c-4.53,4.531-10.569,7.026-17.006,7.026c-5.34,0-10.464-1.698-14.815-4.91c-16.812-12.407-36.716-18.966-57.56-18.966
		c-20.84,0-40.742,6.559-57.553,18.968C145.594,225.226,140.47,226.925,135.13,226.925"/>
	<path clip-path="url(#SVGID_2_)" fill="#858483" d="M207.499,158.615c31.485,0,60.565,10.353,84.105,27.798
		c9.978,7.394,11.204,21.851,2.424,30.632c-3.897,3.896-8.998,5.844-14.154,5.844c-4.329,0-8.698-1.374-12.42-4.122
		c-16.798-12.396-37.52-19.754-59.955-19.754c-22.433,0-43.152,7.358-59.948,19.755c-3.724,2.749-8.091,4.123-12.422,4.123
		c-5.155,0-10.257-1.948-14.153-5.844l-0.001-0.001c-8.781-8.781-7.554-23.237,2.422-30.631
		C146.935,168.968,176.015,158.615,207.499,158.615 M207.499,150.545c-32.225,0-62.969,10.161-88.907,29.386
		c-6.695,4.964-10.887,12.554-11.498,20.825c-0.596,8.061,2.29,15.963,7.926,21.742l0.018,0.022l0.232,0.23
		c5.293,5.293,12.346,8.208,19.859,8.208c6.21,0,12.162-1.971,17.214-5.699c16.112-11.893,35.184-18.179,55.156-18.179
		c19.975,0,39.05,6.286,55.163,18.178c5.051,3.729,11.003,5.698,17.212,5.698c7.514,0,14.566-2.915,19.858-8.207
		c5.802-5.801,8.78-13.818,8.177-21.996c-0.612-8.271-4.805-15.862-11.5-20.825C270.47,160.707,239.725,150.545,207.499,150.545"/>
	<path clip-path="url(#SVGID_2_)" fill="#34509B" d="M207.499,320.527c-25.638,0-46.496-20.858-46.496-46.497
		c0-25.638,20.858-46.497,46.496-46.497c25.639,0,46.497,20.859,46.497,46.497C253.996,299.668,233.138,320.527,207.499,320.527"/>
	<path clip-path="url(#SVGID_2_)" fill="#858483" d="M207.5,231.568c23.451,0,42.462,19.011,42.462,42.462
		s-19.011,42.462-42.462,42.462s-42.462-19.011-42.462-42.462S184.049,231.568,207.5,231.568 M207.5,223.499
		c-27.863,0-50.531,22.668-50.531,50.531s22.668,50.531,50.531,50.531s50.531-22.668,50.531-50.531S235.363,223.499,207.5,223.499"
		/>
</g>
</svg>
