<?xml version="1.0" encoding="utf-8"?>
<!-- Generator: Adobe Illustrator 16.0.0, SVG Export Plug-In . SVG Version: 6.00 Build 0)  -->
<!DOCTYPE svg PUBLIC "-//W3C//DTD SVG 1.1//EN" "http://www.w3.org/Graphics/SVG/1.1/DTD/svg11.dtd">
<svg version="1.1" id="Layer_1" xmlns="http://www.w3.org/2000/svg" xmlns:xlink="http://www.w3.org/1999/xlink" x="0px" y="0px"
	 width="192.127px" height="139.42px" viewBox="0 0 192.127 139.42" enable-background="new 0 0 192.127 139.42"
	 xml:space="preserve">
<g>
	<defs>
		<rect id="SVGID_1_" width="192.127" height="139.42"/>
	</defs>
	<clipPath id="SVGID_2_">
		<use xlink:href="#SVGID_1_"  overflow="visible"/>
	</clipPath>
	<path clip-path="url(#SVGID_2_)" fill="#858483" d="M192.098,60.015V58.02c0-0.44-0.09-0.855-0.229-1.247
		c-0.46-4.597-1.535-9.122-3.248-13.526c-6.363-16.342-21.237-29.868-40.783-37.102c-20.771-7.842-47.018-8.203-70.223-0.942
		c-14.07,4.3-60.877,20.966-73.678,55.029c-2.444,6.674-4.169,14.877-3.885,22.574C0.028,82.973,0,83.139,0,83.313v25.297
		c0,0.557,0.131,1.078,0.35,1.553c0.897,8.164,4.2,14.312,9.596,17.816c6.385,4.151,15.122,4.313,25.962,0.478
		c3.132-1.111,6.377-2.381,9.66-3.673c10.584-4.147,21.417-8.437,29.8-7.682c10.465,0.83,21.154,5.792,31.483,10.588
		c2.555,1.184,5.102,2.366,7.596,3.472c11.922,5.51,22.634,8.263,32.12,8.259c16.79,0,29.711-8.631,38.582-25.856
		c4.912-9.59,7.241-19.67,6.793-29.242c0.092-0.322,0.156-0.656,0.156-1.009V63.477C192.133,62.32,192.14,61.165,192.098,60.015
		 M184.69,62.984c-0.184,7.491-2.235,15.17-6.137,22.774c-11.884,23.069-31.829,27.734-61.051,14.224
		c-2.509-1.107-5.018-2.271-7.527-3.437c-10.93-5.074-22.228-10.321-33.969-11.253c-0.872-0.079-1.751-0.116-2.652-0.116
		c-9.36,0-20.087,4.206-30.491,8.286c-3.208,1.258-6.378,2.501-9.42,3.579c-6.851,2.396-16.114,4.104-21.387-1.255
		c-5.687-5.773-6.168-19.344-1.172-32.975c11.606-30.878,55.679-46.48,68.908-50.526c0.007-0.003,0.015-0.003,0.022-0.007
		c21.673-6.768,46.132-6.472,65.43,0.811c17.578,6.506,30.875,18.48,36.464,32.847c2.097,5.388,3.084,11.007,2.981,16.739V62.984z"
		/>
	<path clip-path="url(#SVGID_2_)" fill="#FF8C00" d="M145.748,52.705c-0.022-0.008-0.053-0.011-0.074-0.019
		c-1.412-0.334-2.817-0.499-4.154-0.499c-2.412,0-4.62,0.533-6.28,1.566c-0.879,0.545-1.991,1.495-2.321,2.922
		c-0.323,1.401,0.263,2.734,0.818,3.61c1.608,2.539,4.974,4.627,8.774,5.45c6.482,1.525,12.08-0.857,12.838-4.001
		c0.315-1.37-0.278-2.711-0.834-3.586C152.899,55.608,149.543,53.524,145.748,52.705"/>
	<path clip-path="url(#SVGID_2_)" fill="#EEA860" d="M117.503,124.403c-2.509-1.108-5.018-2.272-7.526-3.437
		c-10.931-5.074-22.229-10.321-33.97-11.254c-9.915-0.916-21.739,3.7-33.143,8.171c-3.207,1.258-6.377,2.501-9.435,3.587
		c-8.421,2.974-15.151,3.091-19.448,0.293c-4.628-3.01-6.018-8.971-6.363-13.443c-0.025-0.325-0.106-0.629-0.21-0.923v-5.801
		c4.589,4.237,13.161,7.795,28.5,2.438c3.133-1.112,6.378-2.381,9.661-3.673c10.584-4.147,21.417-8.44,29.8-7.681
		c10.464,0.83,21.154,5.791,31.483,10.588c2.554,1.183,5.101,2.366,7.595,3.471c11.921,5.51,22.633,8.263,32.121,8.259
		c16.342,0,29.008-8.203,37.853-24.52c-0.563,6.516-2.546,13.217-5.867,19.701C166.669,133.248,146.726,137.91,117.503,124.403"/>
	<path clip-path="url(#SVGID_2_)" fill="#FF8C00" d="M181.709,45.937c-5.589-14.367-18.886-26.341-36.464-32.847
		c-19.298-7.283-43.757-7.579-65.43-0.811c-0.007,0.004-0.015,0.004-0.022,0.007c-13.229,4.046-57.302,19.648-68.908,50.526
		c-4.996,13.63-4.515,27.201,1.172,32.974c5.273,5.359,14.536,3.65,21.387,1.255c3.042-1.078,6.212-2.321,9.42-3.58
		c10.404-4.079,21.131-8.285,30.491-8.285c0.901,0,1.78,0.037,2.652,0.116c11.741,0.932,23.039,6.179,33.969,11.253
		c2.51,1.164,5.019,2.329,7.527,3.437c29.222,13.511,49.167,8.846,61.051-14.224c3.901-7.604,5.953-15.283,6.137-22.774v-0.308
		C184.793,56.944,183.806,51.325,181.709,45.937 M162.568,63.432c-1.495,6.22-8.182,10.201-16.054,10.201
		c-1.833,0-3.726-0.214-5.642-0.668c-5.687-1.228-10.728-4.492-13.401-8.714c-1.878-2.967-2.494-6.164-1.781-9.247
		c0.715-3.092,2.667-5.702,5.636-7.55c4.273-2.648,10.081-3.38,16.022-1.991c5.739,1.251,10.757,4.504,13.424,8.71
		C162.658,57.141,163.282,60.345,162.568,63.432"/>
</g>
</svg>
